<?xml version="1.0" standalone="no"?>
<!DOCTYPE svg PUBLIC "-//W3C//DTD SVG 20010904//EN"
 "http://www.w3.org/TR/2001/REC-SVG-20010904/DTD/svg10.dtd">
<svg version="1.0" xmlns="http://www.w3.org/2000/svg"
 width="319.000000pt" height="347.000000pt" viewBox="0 0 319.000000 347.000000"
 preserveAspectRatio="xMidYMid meet">

<g transform="translate(0.000000,347.000000) scale(0.100000,-0.100000)"
fill="#000000" stroke="none">
<path d="M1585 3219 c-22 -12 -51 -31 -63 -43 -48 -43 -52 -62 -52 -271 0
-177 -2 -196 -17 -202 -10 -3 -33 -17 -51 -30 -62 -46 -62 -44 -62 -456 l0
-375 -122 -4 c-133 -5 -162 -14 -209 -65 -45 -47 -63 -93 -63 -155 2 -157 168
-252 334 -189 27 11 52 16 55 11 3 -4 4 -165 4 -357 l0 -348 36 -60 c39 -65
84 -197 136 -402 53 -211 68 -212 118 -10 45 184 87 311 132 397 l39 76 0 349
c0 193 5 379 10 413 14 83 43 143 96 197 40 42 157 125 175 125 5 0 4 -12 -2
-27 -17 -43 -14 -143 6 -191 9 -23 37 -60 61 -81 142 -125 367 -48 406 139 22
107 -36 222 -137 269 -107 50 -284 10 -449 -101 -78 -54 -149 -124 -175 -176
-46 -89 -51 -144 -51 -535 0 -366 0 -368 -23 -405 -28 -46 -61 -121 -90 -210
l-22 -67 -3 468 c-2 405 -4 468 -17 473 -8 4 -22 1 -30 -6 -13 -10 -15 -81
-17 -474 l-3 -461 -27 85 c-15 47 -45 122 -68 168 l-40 83 0 358 0 358 68 51
c37 28 131 107 210 175 281 245 452 337 628 337 167 0 293 -94 339 -255 35
-120 -4 -256 -100 -344 -74 -68 -123 -86 -235 -86 -124 0 -179 23 -255 107
-55 62 -87 73 -93 33 -7 -48 111 -156 206 -189 145 -51 325 -12 431 94 25 25
62 75 81 111 34 63 35 66 35 184 0 113 -2 123 -30 180 -36 71 -112 150 -182
187 -98 54 -269 57 -392 8 -157 -61 -284 -148 -501 -340 -171 -151 -218 -186
-313 -230 -101 -47 -181 -45 -237 6 -72 66 -72 153 3 220 35 33 44 36 82 32
59 -7 113 -51 141 -115 19 -43 26 -51 44 -46 12 3 24 12 27 20 6 15 -22 78
-53 121 l-16 22 125 0 c117 0 128 2 153 23 42 36 25 47 -77 47 l-89 0 0 295 0
295 119 0 c124 0 149 8 135 44 -5 14 -25 16 -130 16 l-124 0 0 38 c0 86 51
122 173 122 84 0 125 -14 151 -52 14 -19 16 -68 16 -335 0 -172 3 -313 8 -313
4 1 17 9 30 19 22 19 22 20 22 321 0 291 -1 304 -22 341 -13 23 -38 47 -64 61
l-44 23 -2 260 c-3 252 -4 260 -23 262 -11 1 -38 -7 -60 -18z m25 -284 l0
-225 -40 0 -40 0 0 191 0 191 34 34 c19 19 37 34 40 34 3 0 6 -101 6 -225z
m803 -1081 c104 -68 101 -236 -5 -298 -58 -34 -98 -41 -145 -26 -84 28 -133
91 -133 172 0 49 27 114 58 141 58 52 157 56 225 11z"/>
<path d="M1164 2831 c-331 -137 -578 -396 -693 -723 -49 -142 -65 -244 -65
-418 0 -226 33 -360 135 -560 126 -247 336 -444 588 -554 99 -44 227 -83 238
-73 3 4 0 19 -6 35 -10 24 -23 32 -72 46 -33 9 -103 36 -154 60 -239 112 -427
295 -544 531 -89 178 -122 321 -122 520 0 300 98 557 299 784 61 67 190 181
206 181 4 0 -17 -28 -46 -62 -195 -226 -289 -552 -247 -855 39 -285 190 -553
409 -728 64 -51 160 -115 174 -115 3 0 6 15 6 34 0 32 -6 38 -83 90 -100 66
-200 169 -273 282 -72 110 -108 189 -139 306 -83 312 -28 617 158 887 59 85
191 210 278 263 78 48 89 57 89 78 0 16 -19 31 -38 30 -4 0 -48 -18 -98 -39z"/>
<path d="M2306 2559 c-32 -25 -34 -61 -5 -90 36 -36 99 -6 99 47 0 20 -41 64
-60 64 -4 0 -19 -9 -34 -21z"/>
<path d="M2143 2324 c-15 -23 -15 -29 -2 -52 31 -55 101 -44 107 16 4 43 -12
62 -54 62 -25 0 -38 -7 -51 -26z"/>
<path d="M2441 2336 c-7 -8 -11 -30 -9 -48 4 -45 47 -68 83 -44 32 21 40 52
21 81 -19 29 -75 35 -95 11z"/>
<path d="M2676 1338 c-7 -13 -26 -43 -41 -68 -38 -61 -177 -203 -250 -254
-133 -94 -274 -153 -431 -179 -78 -13 -79 -14 -79 -43 0 -29 1 -29 50 -25 172
12 446 134 573 254 17 17 32 27 32 23 0 -19 -74 -108 -154 -184 -144 -139
-323 -240 -500 -282 -88 -21 -92 -24 -101 -62 -7 -27 -6 -28 26 -22 89 17 189
47 261 78 243 105 462 309 592 549 52 98 91 200 83 222 -9 22 -45 18 -61 -7z"/>
</g>
</svg>
